# xmcd CD database file
#
# Track frame offsets:
#	150
#	16462
#	34994
#	50166
#	67951
#	88347
#	112748
#	127286
#	141335
#	162341
#	180403
#	199106
#	217341
#
# Disc length: 3171 seconds
#
# Revision: 0
# Processed by: cddbd v1.5.1PL2 Copyright (c) Steve Scherf et al.
# Submitted via: CDex 1.51
#
DISCID=c90c610d
DTITLE=Qypthone - Qypthone Early Complate[disc1]
DYEAR=2005
DGENRE=Pop
TTITLE0=The Happiest Street In The World
TTITLE1=マフィン大作戦(Mission "Banana Muffins")
TTITLE2=シュークリームの(Chou a la Creme)
TTITLE3=Saturday Night Special
TTITLE4=Once Upon A Summertime
TTITLE5=Take The Money And Run〜Why Don't U Go To The Party
TTITLE6=Kitchen
TTITLE7=5 o'clock in the morning
TTITLE8=Go-Go Girl
TTITLE9=My Favorite Typewriter
TTITLE10=Love From The Cupid
TTITLE11=MENU
TTITLE12=Tension Attension,Please〜Modenica In The House〜
EXTD=YEAR: 2005
EXTT0=
EXTT1=
EXTT2=
EXTT3=
EXTT4=
EXTT5=
EXTT6=
EXTT7=
EXTT8=
EXTT9=
EXTT10=
EXTT11=
EXTT12=
PLAYORDER=
